<svg 
  width="32" 
  height="32" 
  viewBox="0 0 26 34" 
  fill="none" 
  xmlns="http://www.w3.org/2000/svg"
>
  <path d="M1.32397 8.95312H2.4861V10.1152H1.32397V8.95312Z" fill="#FF4444"/>
  <path d="M2.48602 7.46533H3.81015V8.95946H2.48602V7.46533Z" fill="#FF4444"/>
  <path d="M1.32397 1.32422H2.4861V2.48634H1.32397V1.32422Z" fill="#FF4444"/>
  <path d="M2.48602 2.48633H3.81015V3.81046H2.48602V2.48633Z" fill="#FF4444"/>
  <path d="M1.23919 4.97266H2.48631V6.46679H6.10352e-05V4.97266H1.23919Z" fill="#FF4444"/>
  <path d="M6.29661 10.094V11.4473H4.97247V8.95312H6.29661V10.094Z" fill="#FF4444"/>
  <path d="M4.97217 4.97266H6.2963V6.46679H4.97217V4.97266Z" fill="#FF4444"/>
  <path d="M6.29661 1.28962V2.48625H4.97247V0H6.29661V1.28962Z" fill="#FF4444"/>
  <path d="M6.29639 6.4668H7.45851V7.45892H6.29639V6.4668Z" fill="#FF4444"/>
  <path d="M7.45856 7.46533H8.78269V8.95946H7.45856V7.46533Z" fill="#FF4444"/>
  <path d="M10.1083 6.4668H12.6012V7.46555H8.78296V6.4668H10.1083Z" fill="#FF4444"/>
  <path d="M13.9253 8.87582V10.115H12.6012V7.46533H13.9253V8.87582Z" fill="#FF4444"/>
  <path d="M13.9253 10.1152H15.0874V11.4394H13.9253V10.1152Z" fill="#FF4444"/>
  <path d="M23.8782 21.3918V18.9055H22.716V17.5801H21.3919V16.4193H18.9056V13.763H16.4194V11.4468H15.0873V13.763H12.601V16.4193H10.1148V17.5814L8.78264 17.5801V18.9042L7.45851 18.9055V21.3918H6.29639V27.6964H7.45851V30.1827H8.78264V31.5148H10.1148V32.6769L12.601 32.6756V33.9997H18.9056V32.6756H21.3919V31.5135H22.716V30.1813H23.8782V27.6951H25.2089V21.3918L23.8782 21.3918ZM13.961 22.5539L12.601 22.5526V23.8847H10.1148V22.5526H8.95264V20.0663H10.1148V18.9055H12.601V20.0677H13.9251L13.961 22.5539Z" fill="#55DD63"/>
  <path d="M23.8782 21.3918V18.9055H22.716V17.5801H21.3919V16.4193H18.9056V13.763H16.4194V11.4468H15.0873V13.763H12.601V16.4193H10.1148V17.5814L8.78264 17.5801V18.9042L7.45851 18.9055V21.3918H6.29639V27.6964H7.45851V30.1827H8.78264V31.5148H10.1148V32.6769L12.601 32.6756V33.9997H18.9056V32.6756H21.3919V31.5135H22.716V30.1813H23.8782V27.6951H25.2089V21.3918L23.8782 21.3918ZM13.961 22.5539L12.601 22.5526V23.8847H10.1148V22.5526H8.95264V20.0663H10.1148V18.9055H12.601V20.0677H13.9251L13.961 22.5539Z" fill="#55DD63"/>
</svg>

